# xmcd
#
# Track frame offsets:
#	150
#	14918
#	32448
#	48790
#	68660
#	81518
#	95803
#	113428
#	134183
#	149493
#	164728
#	186215
#	202540
#
# Disc length: 2873 seconds
#
# Revision: 0
# Processed by: cddbd v1.5.1PL0 Copyright (c) Steve Scherf et al.
# Submitted via: dBpowerAMP V4.0
#
DISCID=ba0b370d
DTITLE=Alan Jackson - Who I Am
DYEAR=1994
DGENRE=Country
TTITLE0=Summertime Blues
TTITLE1=Livin' On Love
TTITLE2=Hole In The Wall
TTITLE3=Gone Country
TTITLE4=Who I Am
TTITLE5=You Can't Give Up On Love
TTITLE6=I Don't Even Know Your Name
TTITLE7=Song For The Life
TTITLE8=Thank God For The Radio
TTITLE9=All American Country Boy
TTITLE10=Job Description
TTITLE11=If I Had You
TTITLE12=Let's Get Back To Me And You
EXTD=
EXTT0=
EXTT1=
EXTT2=
EXTT3=
EXTT4=
EXTT5=
EXTT6=
EXTT7=
EXTT8=
EXTT9=
EXTT10=
EXTT11=
EXTT12=
PLAYORDER=
